<svg id="Layer_1" enable-background="new 0 0 513 513" height="512" viewBox="0 0 513 513" width="512" xmlns="http://www.w3.org/2000/svg"><g><path d="m440.49 162.46c1.292-63.268-60.259-112.245-123.37-93.46-19.108-40.448-60.069-69-108.62-69-64.68 0-117.58 51.44-119.92 115.56-51.031 11.108-88.08 56.453-88.08 109.44 0 61.76 50.24 112 112 112h312c48.52 0 88-39.48 88-88 0-43.06-31.09-79-72.01-86.54z"/><path d="m256.5 361c-8.836 0-16 7.164-16 16v32c0 8.836 7.164 16 16 16s16-7.164 16-16v-32c0-8.836-7.164-16-16-16z"/><path d="m384.5 361c-8.836 0-16 7.164-16 16v32c0 8.836 7.164 16 16 16s16-7.164 16-16v-32c0-8.836-7.164-16-16-16z"/><path d="m128.5 361c-8.836 0-16 7.164-16 16v32c0 8.836 7.164 16 16 16s16-7.164 16-16v-32c0-8.836-7.164-16-16-16z"/><path d="m192.5 449c-8.836 0-16 7.164-16 16v32c0 8.836 7.164 16 16 16s16-7.164 16-16v-32c0-8.836-7.164-16-16-16z"/><path d="m320.5 449c-8.836 0-16 7.164-16 16v32c0 8.836 7.164 16 16 16s16-7.164 16-16v-32c0-8.836-7.164-16-16-16z"/><path d="m448.5 449c-8.836 0-16 7.164-16 16v32c0 8.836 7.164 16 16 16s16-7.164 16-16v-32c0-8.836-7.164-16-16-16z"/><path d="m64.5 449c-8.836 0-16 7.164-16 16v32c0 8.836 7.164 16 16 16s16-7.164 16-16v-32c0-8.836-7.164-16-16-16z"/></g></svg>