<svg id="Layer_1" enable-background="new 0 0 512.309 512.309" height="512" viewBox="0 0 512.309 512.309" width="512" xmlns="http://www.w3.org/2000/svg"><g><path d="m503.92 179.412c-6.31-3.42-14.13-2.21-19.12 2.95-17.01 17.61-39.87 27.31-64.37 27.31-49.38 0-89.56-40.18-89.56-89.56 0-29.99 14.91-57.85 39.89-74.53 5.97-3.99 8.56-11.46 6.33-18.28s-8.73-11.32-15.9-11.02c-89.546 3.873-155.106 86.027-139.13 174.258.303 1.673 1.47 3.051 3.038 3.707 23.033 9.637 43.457 26.271 57.793 48.412 1.025 1.582 2.881 2.432 4.751 2.197 46.558-5.866 89.917 19.869 108.667 60.396 1.002 2.165 3.38 3.335 5.702 2.785 53.06-12.566 97.104-54.655 109.9-111.006 1.589-6.999-1.671-14.209-7.991-17.619z"/><path d="m372.53 364.042c12.335-60.775-51.311-107.63-105.285-79.934-11.863-39.149-48.223-67.649-91.245-67.649-55.834 0-99.914 47.819-94.95 103.856-45.352 3.543-81.05 41.465-81.05 87.727 0 48.466 39.265 88 88 88h286c36.451 0 66-29.549 66-66 0-34.838-27.413-66-67.47-66z"/><path d="m416 120.042h8v8c0 8.836 7.164 16 16 16s16-7.164 16-16v-8h8c8.836 0 16-7.164 16-16s-7.164-16-16-16h-8v-8c0-8.836-7.164-16-16-16s-16 7.164-16 16v8h-8c-8.836 0-16 7.164-16 16s7.164 16 16 16z"/><path d="m24 208.042h8v8c0 8.836 7.164 16 16 16s16-7.164 16-16v-8h8c8.836 0 16-7.164 16-16s-7.164-16-16-16h-8v-8c0-8.836-7.164-16-16-16s-16 7.164-16 16v8h-8c-8.836 0-16 7.164-16 16s7.164 16 16 16z"/><path d="m136 96.042h8v8c0 8.836 7.164 16 16 16s16-7.164 16-16v-8h8c8.836 0 16-7.164 16-16s-7.164-16-16-16h-8v-8c0-8.836-7.164-16-16-16s-16 7.164-16 16v8h-8c-8.836 0-16 7.164-16 16s7.164 16 16 16z"/></g></svg>