<svg id="Layer_1" enable-background="new 0 0 512 512" height="512" viewBox="0 0 512 512" width="512" xmlns="http://www.w3.org/2000/svg"><g><path d="m497.64 295.39c-6.32-3.42-14.13-2.21-19.12 2.95-33.46 34.6-78.39 53.66-126.52 53.66-97.05 0-176-78.95-176-176 0-58.93 29.3-113.69 78.38-146.46 5.96-3.99 8.55-11.46 6.32-18.28s-8.73-11.32-15.9-11.02c-134.994 5.828-244.8 116.935-244.8 255.76 0 141.486 114.497 256 256 256 120.434 0 223.447-83.849 249.62-198.99 1.59-7-1.67-14.2-7.98-17.62z"/><path d="m496 80c-35.29 0-64-28.71-64-64 0-8.84-7.16-16-16-16s-16 7.16-16 16c0 35.29-28.71 64-64 64-8.84 0-16 7.16-16 16s7.16 16 16 16c35.29 0 64 28.71 64 64 0 8.84 7.16 16 16 16s16-7.16 16-16c0-35.29 28.71-64 64-64 8.84 0 16-7.16 16-16s-7.16-16-16-16z"/><path d="m232 241c0 8.84 7.16 16 16 16 22.06 0 40 17.94 40 40 0 8.84 7.16 16 16 16s16-7.16 16-16c0-22.06 17.94-40 40-40 8.84 0 16-7.16 16-16s-7.16-16-16-16c-22.06 0-40-17.94-40-40 0-8.84-7.16-16-16-16s-16 7.16-16 16c0 22.06-17.94 40-40 40-8.84 0-16 7.16-16 16z"/></g></svg>